<svg width="53" height="54" viewBox="0 0 53 54" fill="none" xmlns="http://www.w3.org/2000/svg">
<g filter="url(#filter0_d_3_17)">
<path fill-rule="evenodd" clip-rule="evenodd" d="M0 26.1452C0 39.0715 9.56871 49.8203 22.0833 52V33.2215H15.4583V26H22.0833V20.2215C22.0833 13.7215 26.352 10.1118 32.3896 10.1118C34.302 10.1118 36.3646 10.4 38.277 10.6882V17.3333H34.8917C31.652 17.3333 30.9167 18.9215 30.9167 20.9452V26H37.9833L36.8063 33.2215H30.9167V52C43.4313 49.8203 53 39.0737 53 26.1452C53 11.765 41.075 0 26.5 0C11.925 0 0 11.765 0 26.1452Z" fill="#266198"/>
</g>
<defs>
<filter id="filter0_d_3_17" x="-4" y="0" width="61" height="60" filterUnits="userSpaceOnUse" color-interpolation-filters="sRGB">
<feFlood flood-opacity="0" result="BackgroundImageFix"/>
<feColorMatrix in="SourceAlpha" type="matrix" values="0 0 0 0 0 0 0 0 0 0 0 0 0 0 0 0 0 0 127 0" result="hardAlpha"/>
<feOffset dy="4"/>
<feGaussianBlur stdDeviation="2"/>
<feComposite in2="hardAlpha" operator="out"/>
<feColorMatrix type="matrix" values="0 0 0 0 0 0 0 0 0 0 0 0 0 0 0 0 0 0 0.25 0"/>
<feBlend mode="normal" in2="BackgroundImageFix" result="effect1_dropShadow_3_17"/>
<feBlend mode="normal" in="SourceGraphic" in2="effect1_dropShadow_3_17" result="shape"/>
</filter>
</defs>
</svg>
